<?xml version="1.0" encoding="utf-8"?>
<!-- Generator: Adobe Illustrator 18.1.1, SVG Export Plug-In . SVG Version: 6.00 Build 0)  -->
<!DOCTYPE svg PUBLIC "-//W3C//DTD SVG 1.1//EN" "http://www.w3.org/Graphics/SVG/1.1/DTD/svg11.dtd">
<svg version="1.1" id="Layer_1" xmlns="http://www.w3.org/2000/svg" xmlns:xlink="http://www.w3.org/1999/xlink" x="0px" y="0px"
	 viewBox="0 0 1280 800" enable-background="new 0 0 1280 800" xml:space="preserve">
<g>
	<g>
		<path fill="#F5F8FB" stroke="#0A82BA" stroke-linecap="round" stroke-linejoin="round" stroke-miterlimit="10" d="
			M817.015,362.015c0,9.895,6.384,16.279,16.279,16.279h144.918c9.895,0,14.364-6.384,14.364-16.279v-95.441H817.015V362.015z"/>
		<path fill="#F5F8FB" stroke="#0A82BA" stroke-linecap="round" stroke-linejoin="round" stroke-miterlimit="10" d="
			M977.893,234.653H832.975c-9.895,0-16.279,9.895-16.279,19.471v12.449h175.561v-12.449
			C992.576,244.549,987.788,234.653,977.893,234.653z"/>
	</g>
	
		<circle fill="#F5F8FB" stroke="#0A82BA" stroke-linecap="round" stroke-linejoin="round" stroke-miterlimit="10" cx="935.439" cy="251.89" r="4.788"/>
	
		<circle fill="#F5F8FB" stroke="#0A82BA" stroke-linecap="round" stroke-linejoin="round" stroke-miterlimit="10" cx="952.676" cy="251.89" r="4.788"/>
	
		<circle fill="#F5F8FB" stroke="#0A82BA" stroke-linecap="round" stroke-linejoin="round" stroke-miterlimit="10" cx="971.828" cy="251.89" r="4.788"/>
	<g>
		
			<rect x="831.379" y="281.576" fill="#F5F8FB" stroke="#0A82BA" stroke-linecap="round" stroke-linejoin="round" stroke-miterlimit="10" width="146.514" height="80.758"/>
		<g>
			
				<circle fill="#F5F8FB" stroke="#0A82BA" stroke-linecap="round" stroke-linejoin="round" stroke-miterlimit="10" cx="904.476" cy="321.796" r="24.898"/>
			<polygon fill="#F5F8FB" stroke="#0A82BA" stroke-linecap="round" stroke-linejoin="round" stroke-miterlimit="10" points="
				896.815,306.793 919.798,321.796 896.815,337.117 			"/>
		</g>
	</g>
</g>
<g>
	<g>
		<path fill="#F5F8FB" stroke="#0A82BA" stroke-linecap="round" stroke-linejoin="round" stroke-miterlimit="10" d="
			M886.921,558.325h-96.534l-21.742,22.612v-22.612v-80.88c0-7.827,7.247-14.205,15.944-14.205h102.622
			c8.697,0,15.944,6.377,15.944,14.205v66.675C902.575,552.237,895.617,558.325,886.921,558.325z"/>
		<g>
			
				<line fill="none" stroke="#0A82BA" stroke-linecap="round" stroke-linejoin="round" stroke-miterlimit="10" x1="879.384" y1="493.969" x2="795.315" y2="493.969"/>
			
				<line fill="none" stroke="#0A82BA" stroke-linecap="round" stroke-linejoin="round" stroke-miterlimit="10" x1="879.384" y1="505.564" x2="795.315" y2="505.564"/>
			
				<line fill="none" stroke="#0A82BA" stroke-linecap="round" stroke-linejoin="round" stroke-miterlimit="10" x1="879.384" y1="520.059" x2="795.315" y2="520.059"/>
			
				<line fill="none" stroke="#0A82BA" stroke-linecap="round" stroke-linejoin="round" stroke-miterlimit="10" x1="879.384" y1="531.654" x2="795.315" y2="531.654"/>
		</g>
		<path fill="none" stroke="#0A82BA" stroke-linecap="round" stroke-linejoin="round" stroke-miterlimit="10" d="M893.878,481.503
			c0,0-0.579-9.276-11.016-9.276"/>
	</g>
	<g>
		<path fill="#F5F8FB" stroke="#0A82BA" stroke-linecap="round" stroke-linejoin="round" stroke-miterlimit="10" d="
			M831.841,617.752h96.534l21.742,22.612v-22.612v-80.88c0-7.827-7.247-14.205-15.944-14.205H831.551
			c-8.697,0-15.944,6.377-15.944,14.205v66.675C815.897,611.665,823.144,617.752,831.841,617.752z"/>
		<g>
			
				<line fill="none" stroke="#0A82BA" stroke-linecap="round" stroke-linejoin="round" stroke-miterlimit="10" x1="838.798" y1="551.947" x2="922.867" y2="551.947"/>
			
				<line fill="none" stroke="#0A82BA" stroke-linecap="round" stroke-linejoin="round" stroke-miterlimit="10" x1="838.798" y1="563.543" x2="922.867" y2="563.543"/>
			
				<line fill="none" stroke="#0A82BA" stroke-linecap="round" stroke-linejoin="round" stroke-miterlimit="10" x1="838.798" y1="580.936" x2="922.867" y2="580.936"/>
			
				<line fill="none" stroke="#0A82BA" stroke-linecap="round" stroke-linejoin="round" stroke-miterlimit="10" x1="838.798" y1="592.532" x2="922.867" y2="592.532"/>
		</g>
		<path fill="none" stroke="#0A82BA" stroke-linecap="round" stroke-linejoin="round" stroke-miterlimit="10" d="M824.593,540.931
			c0,0,0.579-9.276,11.016-9.276"/>
	</g>
</g>
<g>
	<path fill="#F5F8FB" stroke="#0A82BA" stroke-linecap="round" stroke-linejoin="round" stroke-miterlimit="10" d="M604.703,196.349
		c-52.03,1.596-71.182,49.157-60.648,85.865c0.958,4.788,2.873,9.895,5.107,15.003c7.022,15.641,25.855,30.005,25.855,43.731
		c0,5.426,1.277,30.963,1.277,30.963h55.541c0,0,1.915-27.132,1.915-30.963c0-13.726,19.152-28.409,26.175-44.05
		c2.234-5.107,4.15-9.895,5.107-15.003C675.885,245.506,656.414,197.945,604.703,196.349z"/>
	<path fill="none" stroke="#0A82BA" stroke-linecap="round" stroke-linejoin="round" stroke-miterlimit="10" d="M591.297,372.549
		l26.175-93.207c0,0-9.895-14.364-13.087-14.364s-13.087,14.364-13.087,14.364l26.175,93.207"/>
	<g>
		
			<rect x="575.656" y="383.401" fill="#F5F8FB" stroke="#0A82BA" stroke-linecap="round" stroke-linejoin="round" stroke-miterlimit="10" width="57.776" height="32.878"/>
		
			<line fill="none" stroke="#0A82BA" stroke-linecap="round" stroke-linejoin="round" stroke-miterlimit="10" x1="578.209" y1="391.062" x2="606.938" y2="391.062"/>
		
			<line fill="none" stroke="#0A82BA" stroke-linecap="round" stroke-linejoin="round" stroke-miterlimit="10" x1="600.554" y1="403.83" x2="629.282" y2="403.83"/>
	</g>
	<g>
		
			<line fill="none" stroke="#0A82BA" stroke-linecap="round" stroke-linejoin="round" stroke-miterlimit="10" x1="605.342" y1="127.721" x2="605.342" y2="150.065"/>
		
			<line fill="none" stroke="#0A82BA" stroke-linecap="round" stroke-linejoin="round" stroke-miterlimit="10" x1="547.885" y1="137.935" x2="557.461" y2="161.237"/>
		
			<line fill="none" stroke="#0A82BA" stroke-linecap="round" stroke-linejoin="round" stroke-miterlimit="10" x1="659.925" y1="135.701" x2="650.349" y2="159.003"/>
		
			<line fill="none" stroke="#0A82BA" stroke-linecap="round" stroke-linejoin="round" stroke-miterlimit="10" x1="703.017" y1="165.387" x2="688.653" y2="179.751"/>
		
			<line fill="none" stroke="#0A82BA" stroke-linecap="round" stroke-linejoin="round" stroke-miterlimit="10" x1="521.711" y1="181.027" x2="506.07" y2="165.387"/>
	</g>
	<path fill="none" stroke="#0A82BA" stroke-linecap="round" stroke-linejoin="round" stroke-miterlimit="10" d="M557.461,247.741
		c0,0,3.83-38.304,44.05-38.304"/>
</g>
<g>
	<g>
		<path fill="#F5F8FB" stroke="#0A82BA" stroke-linecap="round" stroke-linejoin="round" stroke-miterlimit="10" d="
			M646.499,680.683h-79.162c-8.938,0-16.279-7.342-16.279-16.279V507.995c0-8.938,7.342-16.279,16.279-16.279h79.162
			c8.938,0,16.279,7.342,16.279,16.279v156.09C662.778,673.342,655.436,680.683,646.499,680.683z"/>
		
			<rect x="562.549" y="508.633" fill="#F5F8FB" stroke="#0A82BA" stroke-linecap="round" stroke-linejoin="round" stroke-miterlimit="10" width="88.419" height="144.599"/>
		
			<circle fill="#F5F8FB" stroke="#0A82BA" stroke-linecap="round" stroke-linejoin="round" stroke-miterlimit="10" cx="606.279" cy="666" r="5.426"/>
	</g>
	<g>
		<path fill="#F5F8FB" stroke="#0A82BA" stroke-linecap="round" stroke-linejoin="round" stroke-miterlimit="10" d="M626.07,576.304
			c0,0.319,0,0.958,0,1.277c0,13.087-10.214,28.409-28.409,28.409c-5.746,0-10.853-1.596-15.322-4.469c0.958,0,1.596,0,2.554,0
			c4.788,0,8.938-1.596,12.449-4.15c-4.469,0-7.98-2.873-9.257-7.022c0.638,0,1.277,0,1.915,0c0.958,0,1.915,0,2.554-0.319
			c-4.469-0.958-7.98-5.107-7.98-9.895l0,0c1.277,0.638,2.873,1.277,4.469,1.277c-2.554-1.915-4.469-4.788-4.469-8.299
			c0-1.915,0.638-3.511,1.277-5.107c4.788,6.065,12.449,9.895,20.748,10.534c0-0.638-0.319-1.596-0.319-2.234
			c0-5.426,4.469-9.895,9.895-9.895c2.873,0,5.426,1.277,7.342,3.192c2.234-0.319,4.469-1.277,6.384-2.554
			c-0.638,2.234-2.234,4.15-4.469,5.426c1.915-0.319,3.83-0.638,5.746-1.596C629.9,573.112,628.304,574.708,626.07,576.304z"/>
	</g>
</g>
<g>
	<g>
		<polygon fill="#F5F8FB" stroke="#0A82BA" stroke-linecap="round" stroke-linejoin="round" stroke-miterlimit="10" points="
			257.915,220.713 408.898,268.913 257.915,317.112 		"/>
		<g>
			<path fill="#0581BA" d="M287.92,269.232h-8.938v-3.192h8.938v-8.938h3.192v8.938h8.938v3.192h-8.938v8.938h-3.192V269.232z"/>
			<path fill="#0581BA" d="M310.584,256.145l-5.746,1.596l-0.958-2.873l7.342-2.554h2.554v30.324h-3.192V256.145z"/>
		</g>
	</g>
	
		<line fill="none" stroke="#0A82BA" stroke-linecap="round" stroke-linejoin="round" stroke-miterlimit="10" x1="257.915" y1="219.436" x2="257.915" y2="414.15"/>
</g>
<g>
	<g>
		<g>
			<rect x="294.276" y="510.653" fill="#F5F8FB" width="145.556" height="94.484"/>
			<path fill="#0A82BA" d="M439.832,605.637H294.276c-0.276,0-0.5-0.224-0.5-0.5v-94.483c0-0.276,0.224-0.5,0.5-0.5h145.556
				c0.276,0,0.5,0.224,0.5,0.5v94.483C440.332,605.413,440.109,605.637,439.832,605.637z M294.776,604.637h144.556v-93.483H294.776
				V604.637z"/>
		</g>
		<path fill="#0A82BA" d="M367.054,564.46c-0.103,0-0.206-0.031-0.293-0.095l-72.778-52.668c-0.224-0.162-0.274-0.475-0.112-0.698
			c0.162-0.226,0.474-0.273,0.698-0.112l72.484,52.456l72.166-52.455c0.223-0.161,0.536-0.113,0.698,0.11s0.113,0.536-0.11,0.698
			l-72.459,52.668C367.26,564.428,367.157,564.46,367.054,564.46z"/>
	</g>
	<circle fill="#F5F8FB" cx="367.975" cy="556.855" r="25.988"/>
	<g>
		<path fill="#0581BA" d="M376.716,574.8c-3.323,1.752-6.707,2.417-10.755,2.417c-9.91,0-18.309-7.251-18.309-18.853
			c0-12.447,8.641-23.203,22.055-23.203c10.514,0,17.584,7.372,17.584,17.463c0,9.063-5.076,14.381-10.756,14.381
			c-2.417,0-4.653-1.631-4.472-5.317h-0.241c-2.115,3.565-4.895,5.317-8.521,5.317c-3.504,0-6.525-2.84-6.525-7.613
			c0-7.493,5.922-14.32,14.32-14.32c2.599,0,4.895,0.543,6.466,1.269l-2.055,10.937c-0.906,4.593-0.182,6.707,1.812,6.768
			c3.082,0.061,6.526-4.048,6.526-11.058c0-8.762-5.257-15.046-14.623-15.046c-9.85,0-18.127,7.795-18.127,20.062
			c0,10.091,6.586,16.314,15.528,16.314c3.444,0,6.647-0.726,9.124-2.115L376.716,574.8z M373.393,548.696
			c-0.604-0.182-1.631-0.423-3.021-0.423c-5.317,0-9.607,5.015-9.607,10.876c0,2.659,1.329,4.593,3.987,4.593
			c3.505,0,6.707-4.472,7.372-8.218L373.393,548.696z"/>
	</g>
</g>
</svg>
