<?xml version="1.0" encoding="utf-8"?>
<!-- Generator: Adobe Illustrator 18.1.1, SVG Export Plug-In . SVG Version: 6.00 Build 0)  -->
<!DOCTYPE svg PUBLIC "-//W3C//DTD SVG 1.1//EN" "http://www.w3.org/Graphics/SVG/1.1/DTD/svg11.dtd">
<svg version="1.1" id="Layer_1" xmlns="http://www.w3.org/2000/svg" xmlns:xlink="http://www.w3.org/1999/xlink" x="0px" y="0px"
	 viewBox="212 88.9 515.3 388.1" enable-background="new 212 88.9 515.3 388.1" xml:space="preserve">
<g>
	<g>
		<path fill="#F5F8FB" stroke="#0A82BA" stroke-linecap="round" stroke-linejoin="round" stroke-miterlimit="10" d="M603.9,253.4
			c0,6.9,4.5,11.4,11.4,11.4h101.4c6.9,0,10.1-4.5,10.1-11.4v-66.8H603.9V253.4z"/>
		<path fill="#F5F8FB" stroke="#0A82BA" stroke-linecap="round" stroke-linejoin="round" stroke-miterlimit="10" d="M716.5,164.3
			H615.1c-6.9,0-11.4,6.9-11.4,13.6v8.7h122.9v-8.7C726.8,171.2,723.5,164.3,716.5,164.3z"/>
	</g>
	
		<circle fill="#F5F8FB" stroke="#0A82BA" stroke-linecap="round" stroke-linejoin="round" stroke-miterlimit="10" cx="686.8" cy="176.3" r="3.4"/>
	
		<circle fill="#F5F8FB" stroke="#0A82BA" stroke-linecap="round" stroke-linejoin="round" stroke-miterlimit="10" cx="698.9" cy="176.3" r="3.4"/>
	
		<circle fill="#F5F8FB" stroke="#0A82BA" stroke-linecap="round" stroke-linejoin="round" stroke-miterlimit="10" cx="712.3" cy="176.3" r="3.4"/>
	<g>
		
			<rect x="614" y="197.1" fill="#F5F8FB" stroke="#0A82BA" stroke-linecap="round" stroke-linejoin="round" stroke-miterlimit="10" width="102.6" height="56.5"/>
		<g>
			
				<circle fill="#F5F8FB" stroke="#0A82BA" stroke-linecap="round" stroke-linejoin="round" stroke-miterlimit="10" cx="665.1" cy="225.3" r="17.4"/>
			<polygon fill="#F5F8FB" stroke="#0A82BA" stroke-linecap="round" stroke-linejoin="round" stroke-miterlimit="10" points="
				659.8,214.8 675.9,225.3 659.8,236 			"/>
		</g>
	</g>
</g>
<g>
	<g>
		<path fill="#F5F8FB" stroke="#0A82BA" stroke-linecap="round" stroke-linejoin="round" stroke-miterlimit="10" d="M652.8,390.8
			h-67.6l-15.2,15.8v-15.8v-56.6c0-5.5,5.1-9.9,11.2-9.9H653c6.1,0,11.2,4.5,11.2,9.9v46.7C663.8,386.6,658.9,390.8,652.8,390.8z"/>
		<g>
			
				<line fill="none" stroke="#0A82BA" stroke-linecap="round" stroke-linejoin="round" stroke-miterlimit="10" x1="647.6" y1="345.8" x2="588.7" y2="345.8"/>
			
				<line fill="none" stroke="#0A82BA" stroke-linecap="round" stroke-linejoin="round" stroke-miterlimit="10" x1="647.6" y1="353.9" x2="588.7" y2="353.9"/>
			
				<line fill="none" stroke="#0A82BA" stroke-linecap="round" stroke-linejoin="round" stroke-miterlimit="10" x1="647.6" y1="364" x2="588.7" y2="364"/>
			
				<line fill="none" stroke="#0A82BA" stroke-linecap="round" stroke-linejoin="round" stroke-miterlimit="10" x1="647.6" y1="372.2" x2="588.7" y2="372.2"/>
		</g>
		<path fill="none" stroke="#0A82BA" stroke-linecap="round" stroke-linejoin="round" stroke-miterlimit="10" d="M657.7,337.1
			c0,0-0.4-6.5-7.7-6.5"/>
	</g>
	<g>
		<path fill="#F5F8FB" stroke="#0A82BA" stroke-linecap="round" stroke-linejoin="round" stroke-miterlimit="10" d="M614.3,432.4
			h67.6l15.2,15.8v-15.8v-56.6c0-5.5-5.1-9.9-11.2-9.9h-71.8c-6.1,0-11.2,4.5-11.2,9.9v46.7C603.1,428.2,608.2,432.4,614.3,432.4z"
			/>
		<g>
			
				<line fill="none" stroke="#0A82BA" stroke-linecap="round" stroke-linejoin="round" stroke-miterlimit="10" x1="619.2" y1="386.4" x2="678" y2="386.4"/>
			
				<line fill="none" stroke="#0A82BA" stroke-linecap="round" stroke-linejoin="round" stroke-miterlimit="10" x1="619.2" y1="394.5" x2="678" y2="394.5"/>
			
				<line fill="none" stroke="#0A82BA" stroke-linecap="round" stroke-linejoin="round" stroke-miterlimit="10" x1="619.2" y1="406.7" x2="678" y2="406.7"/>
			
				<line fill="none" stroke="#0A82BA" stroke-linecap="round" stroke-linejoin="round" stroke-miterlimit="10" x1="619.2" y1="414.8" x2="678" y2="414.8"/>
		</g>
		<path fill="none" stroke="#0A82BA" stroke-linecap="round" stroke-linejoin="round" stroke-miterlimit="10" d="M609.2,378.7
			c0,0,0.4-6.5,7.7-6.5"/>
	</g>
</g>
<g>
	<path fill="#F5F8FB" stroke="#0A82BA" stroke-linecap="round" stroke-linejoin="round" stroke-miterlimit="10" d="M455.3,137.4
		c-36.4,1.1-49.8,34.4-42.5,60.1c0.7,3.4,2,6.9,3.6,10.5c4.9,10.9,18.1,21,18.1,30.6c0,3.8,0.9,21.7,0.9,21.7h38.9
		c0,0,1.3-19,1.3-21.7c0-9.6,13.4-19.9,18.3-30.8c1.6-3.6,2.9-6.9,3.6-10.5C505.1,171.9,491.5,138.6,455.3,137.4z"/>
	<path fill="none" stroke="#0A82BA" stroke-linecap="round" stroke-linejoin="round" stroke-miterlimit="10" d="M445.9,260.8
		l18.3-65.2c0,0-6.9-10.1-9.2-10.1s-9.2,10.1-9.2,10.1l18.3,65.2"/>
	<g>
		
			<rect x="435" y="268.4" fill="#F5F8FB" stroke="#0A82BA" stroke-linecap="round" stroke-linejoin="round" stroke-miterlimit="10" width="40.4" height="23"/>
		
			<line fill="none" stroke="#0A82BA" stroke-linecap="round" stroke-linejoin="round" stroke-miterlimit="10" x1="436.7" y1="273.7" x2="456.9" y2="273.7"/>
		
			<line fill="none" stroke="#0A82BA" stroke-linecap="round" stroke-linejoin="round" stroke-miterlimit="10" x1="452.4" y1="282.7" x2="472.5" y2="282.7"/>
	</g>
	<g>
		
			<line fill="none" stroke="#0A82BA" stroke-linecap="round" stroke-linejoin="round" stroke-miterlimit="10" x1="455.7" y1="89.4" x2="455.7" y2="105"/>
		
			<line fill="none" stroke="#0A82BA" stroke-linecap="round" stroke-linejoin="round" stroke-miterlimit="10" x1="415.5" y1="96.6" x2="422.2" y2="112.9"/>
		
			<line fill="none" stroke="#0A82BA" stroke-linecap="round" stroke-linejoin="round" stroke-miterlimit="10" x1="493.9" y1="95" x2="487.2" y2="111.3"/>
		
			<line fill="none" stroke="#0A82BA" stroke-linecap="round" stroke-linejoin="round" stroke-miterlimit="10" x1="524.1" y1="115.8" x2="514.1" y2="125.8"/>
		
			<line fill="none" stroke="#0A82BA" stroke-linecap="round" stroke-linejoin="round" stroke-miterlimit="10" x1="397.2" y1="126.7" x2="386.2" y2="115.8"/>
	</g>
	<path fill="none" stroke="#0A82BA" stroke-linecap="round" stroke-linejoin="round" stroke-miterlimit="10" d="M422.2,173.4
		c0,0,2.7-26.8,30.8-26.8"/>
</g>
<g>
	<g>
		<path fill="#F5F8FB" stroke="#0A82BA" stroke-linecap="round" stroke-linejoin="round" stroke-miterlimit="10" d="M484.5,476.5
			h-55.4c-6.3,0-11.4-5.1-11.4-11.4V355.6c0-6.3,5.1-11.4,11.4-11.4h55.4c6.3,0,11.4,5.1,11.4,11.4v109.3
			C495.9,471.3,490.8,476.5,484.5,476.5z"/>
		
			<rect x="425.8" y="356" fill="#F5F8FB" stroke="#0A82BA" stroke-linecap="round" stroke-linejoin="round" stroke-miterlimit="10" width="61.9" height="101.2"/>
		
			<circle fill="#F5F8FB" stroke="#0A82BA" stroke-linecap="round" stroke-linejoin="round" stroke-miterlimit="10" cx="456.4" cy="466.2" r="3.8"/>
	</g>
	<g>
		<path fill="#F5F8FB" stroke="#0A82BA" stroke-linecap="round" stroke-linejoin="round" stroke-miterlimit="10" d="M470.2,403.4
			c0,0.2,0,0.7,0,0.9c0,9.2-7.1,19.9-19.9,19.9c-4,0-7.6-1.1-10.7-3.1c0.7,0,1.1,0,1.8,0c3.4,0,6.3-1.1,8.7-2.9
			c-3.1,0-5.6-2-6.5-4.9c0.4,0,0.9,0,1.3,0c0.7,0,1.3,0,1.8-0.2c-3.1-0.7-5.6-3.6-5.6-6.9l0,0c0.9,0.4,2,0.9,3.1,0.9
			c-1.8-1.3-3.1-3.4-3.1-5.8c0-1.3,0.4-2.5,0.9-3.6c3.4,4.2,8.7,6.9,14.5,7.4c0-0.4-0.2-1.1-0.2-1.6c0-3.8,3.1-6.9,6.9-6.9
			c2,0,3.8,0.9,5.1,2.2c1.6-0.2,3.1-0.9,4.5-1.8c-0.4,1.6-1.6,2.9-3.1,3.8c1.3-0.2,2.7-0.4,4-1.1
			C472.9,401.2,471.8,402.3,470.2,403.4z"/>
	</g>
</g>
<g>
	<g>
		<polygon fill="#F5F8FB" stroke="#0A82BA" stroke-linecap="round" stroke-linejoin="round" stroke-miterlimit="10" points="
			212.5,154.5 318.2,188.2 212.5,222 		"/>
		<g>
			<path fill="#0581BA" d="M233.5,188.5h-6.3v-2.2h6.3V180h2.2v6.3h6.3v2.2h-6.3v6.3h-2.2V188.5z"/>
			<path fill="#0581BA" d="M249.4,179.3l-4,1.1l-0.7-2l5.1-1.8h1.8v21.2h-2.2V179.3z"/>
		</g>
	</g>
	
		<line fill="none" stroke="#0A82BA" stroke-linecap="round" stroke-linejoin="round" stroke-miterlimit="10" x1="212.5" y1="153.6" x2="212.5" y2="289.9"/>
</g>
<g>
	<g>
		<g>
			<rect x="238" y="357.5" fill="#F5F8FB" width="101.9" height="66.1"/>
			<path fill="#0A82BA" d="M339.9,423.9H238c-0.2,0-0.4-0.2-0.4-0.4v-66.1c0-0.2,0.2-0.4,0.4-0.4h101.9c0.2,0,0.4,0.2,0.4,0.4v66.1
				C340.2,423.8,340.1,423.9,339.9,423.9z M238.3,423.2h101.2v-65.4H238.3V423.2z"/>
		</g>
		<path fill="#0A82BA" d="M288.9,395.1c-0.1,0-0.1,0-0.2-0.1l-50.9-36.9c-0.2-0.1-0.2-0.3-0.1-0.5c0.1-0.2,0.3-0.2,0.5-0.1
			l50.7,36.7l50.5-36.7c0.2-0.1,0.4-0.1,0.5,0.1c0.1,0.2,0.1,0.4-0.1,0.5l-50.7,36.9C289.1,395.1,289,395.1,288.9,395.1z"/>
	</g>
	<circle fill="#F5F8FB" cx="289.6" cy="389.8" r="18.2"/>
	<g>
		<path fill="#0581BA" d="M295.7,402.4c-2.3,1.2-4.7,1.7-7.5,1.7c-6.9,0-12.8-5.1-12.8-13.2c0-8.7,6-16.2,15.4-16.2
			c7.4,0,12.3,5.2,12.3,12.2c0,6.3-3.6,10.1-7.5,10.1c-1.7,0-3.3-1.1-3.1-3.7h-0.2c-1.5,2.5-3.4,3.7-6,3.7c-2.5,0-4.6-2-4.6-5.3
			c0-5.2,4.1-10,10-10c1.8,0,3.4,0.4,4.5,0.9l-1.4,7.7c-0.6,3.2-0.1,4.7,1.3,4.7c2.2,0,4.6-2.8,4.6-7.7c0-6.1-3.7-10.5-10.2-10.5
			c-6.9,0-12.7,5.5-12.7,14c0,7.1,4.6,11.4,10.9,11.4c2.4,0,4.7-0.5,6.4-1.5L295.7,402.4z M293.4,384.1c-0.4-0.1-1.1-0.3-2.1-0.3
			c-3.7,0-6.7,3.5-6.7,7.6c0,1.9,0.9,3.2,2.8,3.2c2.5,0,4.7-3.1,5.2-5.8L293.4,384.1z"/>
	</g>
</g>
</svg>
